# xmcd CD database file
#
# Track frame offsets:
#	183
#	10238
#	26310
#	43308
#	59428
#	73025
#	85560
#	102155
#	118235
#	129245
#	145165
#	158153
#
# Disc length: 2332 seconds
#
# Revision: 0
# Processed by: cddbd v1.4PL0 Copyright (c) Steve Scherf et al.
# Submitted via: CDex 1.50beta9
#
DISCID=9b091a0c
DTITLE=MARGO - MARGO-IRELAND ON MY MIND
DYEAR=1900
DGENRE=Country
TTITLE0=I Would Like To See You Again
TTITLE1=Poverty
TTITLE2=A Tribute To Packie Bonner
TTITLE3=Tipperary Far Away
TTITLE4=Born In Ireland
TTITLE5=Consider The Children
TTITLE6=Little Town On The Shannon
TTITLE7=The Man From The Glen
TTITLE8=Rented Room
TTITLE9=Little White House
TTITLE10=Ireland On My Mind
TTITLE11=How Far Is Heaven
EXTD=
EXTT0=
EXTT1=
EXTT2=
EXTT3=
EXTT4=
EXTT5=
EXTT6=
EXTT7=
EXTT8=
EXTT9=
EXTT10=
EXTT11=
PLAYORDER=
